<svg width="200" height="200" viewBox="0 0 200 200" fill="none" xmlns="http://www.w3.org/2000/svg">
<g clip-path="url(#clip0_3474_13304)">
<path d="M200 100C200 155.228 155.228 200 100 200C44.7715 200 0 155.228 0 100C0 44.7715 44.7715 0 100 0C155.228 0 200 44.7715 200 100Z" fill="#F8F8F6" style="fill:#F8F8F6;fill:color(display-p3 0.9725 0.9725 0.9647);fill-opacity:1;"/>
<path d="M200 100C200 155.228 155.228 200 100 200C44.7715 200 0 155.228 0 100C4.72484e-06 44.7715 44.7715 0 100 0C155.228 0 200 44.7715 200 100ZM166.667 100C166.667 63.181 136.819 33.3333 100 33.3333C63.181 33.3333 33.3333 63.181 33.3333 100C33.3333 136.819 63.181 166.667 100 166.667C136.819 166.667 166.667 136.819 166.667 100Z" fill="#939498" style="fill:#939498;fill:color(display-p3 0.5765 0.5804 0.5961);fill-opacity:1;"/>
<path d="M174.788 166.384C174.508 166.699 174.226 167.013 173.942 167.325C173.923 167.346 173.904 167.367 173.884 167.388C169.693 171.981 165.079 176.182 160.104 179.929C160.1 179.932 160.096 179.934 160.093 179.937C158.374 181.231 156.612 182.471 154.81 183.654C154.777 183.676 154.744 183.697 154.711 183.719C153.664 184.405 152.602 185.072 151.528 185.719C151.502 185.735 151.476 185.75 151.45 185.766C150.355 186.424 149.246 187.063 148.124 187.68C148.086 187.701 148.048 187.722 148.009 187.743C147.484 188.031 146.956 188.314 146.425 188.593C145.62 189.016 144.808 189.428 143.99 189.829C142.647 190.489 141.286 191.118 139.91 191.718C139.075 192.082 138.235 192.434 137.389 192.776C137.043 192.915 136.696 193.053 136.348 193.188C136.099 193.286 135.849 193.382 135.599 193.478C134.601 193.858 133.596 194.222 132.584 194.571C131.096 195.084 129.592 195.562 128.073 196.005C127.736 196.104 127.399 196.2 127.061 196.295C126.971 196.32 126.882 196.345 126.793 196.37C126.393 196.481 125.992 196.59 125.59 196.696C125.525 196.713 125.461 196.729 125.396 196.746C124.84 196.892 124.282 197.033 123.722 197.169C122.373 197.497 121.013 197.798 119.643 198.071C119.318 198.136 118.993 198.198 118.668 198.26C118.551 198.282 118.434 198.304 118.317 198.326C118.031 198.379 117.745 198.43 117.458 198.481C115.094 198.897 112.702 199.23 110.284 199.477C109.411 199.566 108.535 199.645 107.655 199.711C105.569 199.869 103.464 199.963 101.344 199.991C100.897 199.997 100.449 200 100 200C99.5516 200 99.1039 199.997 98.6569 199.991C96.5379 199.963 94.4348 199.869 92.3496 199.711C91.4702 199.645 90.5939 199.567 89.721 199.478C85.1378 199.01 80.6463 198.232 76.2676 197.166C75.5253 196.986 74.7862 196.797 74.0505 196.6C73.6794 196.5 73.3092 196.399 72.9398 196.295C72.6015 196.2 72.2639 196.104 71.9271 196.005C70.8228 195.683 69.7264 195.342 68.6383 194.983C68.2812 194.865 67.925 194.745 67.5697 194.623C67.5246 194.608 67.4796 194.593 67.4346 194.577C66.422 194.229 65.4168 193.864 64.4193 193.484C64.1728 193.391 63.9268 193.296 63.6813 193.2C63.3145 193.057 62.9487 192.912 62.584 192.764C62.1331 192.582 61.6839 192.397 61.2363 192.209C60.8766 192.057 60.518 191.904 60.1605 191.748C60.1445 191.741 60.1283 191.735 60.1123 191.728C58.7204 191.122 57.3451 190.485 55.987 189.818C55.5522 189.605 55.1194 189.388 54.6881 189.168C54.3524 188.997 54.0178 188.824 53.6842 188.65C53.6491 188.631 53.6139 188.613 53.5788 188.595C52.0637 187.799 50.5715 186.966 49.1035 186.096C49.0734 186.079 49.0434 186.06 49.0133 186.043C48.3034 185.621 47.5992 185.191 46.9007 184.752C46.8766 184.737 46.8523 184.722 46.8281 184.707C46.5 184.501 46.1735 184.292 45.848 184.082C45.8079 184.056 45.7679 184.03 45.7279 184.005C43.7618 182.732 41.8433 181.392 39.9756 179.988C39.953 179.971 39.9302 179.954 39.9076 179.937C38.197 178.649 36.5293 177.307 34.9066 175.915C34.7136 175.749 34.5214 175.583 34.3298 175.416C31.1016 172.602 28.0554 169.585 25.2119 166.384L45.8402 138.88C57.9416 155.708 77.6905 166.667 100 166.667C122.31 166.667 142.059 155.708 154.16 138.88L174.788 166.384Z" fill="#C3C4C8" style="fill:#C3C4C8;fill:color(display-p3 0.7647 0.7686 0.7843);fill-opacity:1;"/>
<path d="M154.16 138.88C142.058 155.708 122.309 166.667 99.9997 166.667C77.6902 166.667 57.9413 155.708 45.8398 138.88L95.733 72.3556C97.8663 69.5112 102.133 69.5112 104.266 72.3556L154.16 138.88Z" fill="#575965" style="fill:#575965;fill:color(display-p3 0.3412 0.3490 0.3961);fill-opacity:1;"/>
</g>
<defs>
<clipPath id="clip0_3474_13304">
<rect width="200" height="200" fill="white" style="fill:white;fill-opacity:1;" transform="translate(200) rotate(90)"/>
</clipPath>
</defs>
</svg>
